HIERARCHY
ROOT Hips
{
  OFFSET 0 89.5177 0.535
  CHANNELS 6 Xposition Yposition Zposition Zrotation Xrotation Yrotation
  JOINT Spine
  {
    OFFSET 12.0259 -0.162855 1.69034e-005
    CHANNELS 3 Zrotation Xrotation Yrotation
    JOINT Spine1
    {
      OFFSET 15.3169 -0.0121922 0
      CHANNELS 3 Zrotation Xrotation Yrotation
      JOINT Spine2
      {
        OFFSET 15.3176 -0.0121908 0
        CHANNELS 3 Zrotation Xrotation Yrotation
        JOINT Neck
        {
          OFFSET 19.9142 1.56338 0
          CHANNELS 3 Zrotation Xrotation Yrotation
          JOINT Head
          {
            OFFSET 6.92651 0 0
            CHANNELS 3 Zrotation Xrotation Yrotation
            End Site
            {
              OFFSET 20.7666 0 0
            }
          }
          JOINT LeftShoulder
          {
            OFFSET -6.20654 0.708824 7.28219
            CHANNELS 3 Zrotation Xrotation Yrotation
            JOINT LeftArm
            {
              OFFSET 14.108 0 -1.52588e-005
              CHANNELS 3 Zrotation Xrotation Yrotation
              JOINT LeftForeArm
              {
                OFFSET 28.5802 0 0
                CHANNELS 3 Zrotation Xrotation Yrotation
                JOINT LeftHand
                {
                  OFFSET 27.092 0 0
                  CHANNELS 3 Zrotation Xrotation Yrotation
                  End Site
                  {
                    OFFSET 9.55928 -0.186424 0.145352
                  }
                }
              }
            }
          }
          JOINT RightShoulder
          {
            OFFSET -6.20654 0.708866 -7.28218
            CHANNELS 3 Zrotation Xrotation Yrotation
            JOINT RightArm
            {
              OFFSET 14.108 0 1.52588e-005
              CHANNELS 3 Zrotation Xrotation Yrotation
              JOINT RightForeArm
              {
                OFFSET 28.5802 0 0
                CHANNELS 3 Zrotation Xrotation Yrotation
                JOINT RightHand
                {
                  OFFSET 27.092 0 0
                  CHANNELS 3 Zrotation Xrotation Yrotation
                  End Site
                  {
                    OFFSET 9.55929 -0.186417 -0.145354
                  }
                }
              }
            }
          }
        }
      }
    }
  }
  JOINT LeftUpLeg
  {
    OFFSET 0.005 -0.535 8.837
    CHANNELS 3 Zrotation Xrotation Yrotation
    JOINT LeftLeg
    {
      OFFSET 39.9035 0 0
      CHANNELS 3 Zrotation Xrotation Yrotation
      JOINT LeftFoot
      {
        OFFSET 39.6689 0 0
        CHANNELS 3 Zrotation Xrotation Yrotation
        JOINT LeftToe
        {
          OFFSET 10.1624 13.6296 0
          CHANNELS 3 Zrotation Xrotation Yrotation
          End Site
          {
            OFFSET 8.38147 0 0
          }
        }
      }
    }
  }
  JOINT RightUpLeg
  {
    OFFSET 0.005 -0.535 -8.837
    CHANNELS 3 Zrotation Xrotation Yrotation
    JOINT RightLeg
    {
      OFFSET 39.9035 0 0
      CHANNELS 3 Zrotation Xrotation Yrotation
      JOINT RightFoot
      {
        OFFSET 39.6689 0 0
        CHANNELS 3 Zrotation Xrotation Yrotation
        JOINT RightToe
        {
          OFFSET 10.1624 13.6296 0
          CHANNELS 3 Zrotation Xrotation Yrotation
          End Site
          {
            OFFSET 8.38147 0 0
          }
        }
      }
    }
  }
}
MOTION
Frames:	19
Frame Time:	0.0333333
362.156 88.8019 149.118 -74.6647 45.6255 169.895 3.72572 -3.27339 -0.600782 7.43524 -6.57833 -0.989152 7.43524 -6.57833 -0.989161 -8.30748e-012 -9.0191e-006 -5.27751e-005 34.5266 -54.7992 48.7933 179.673 1.08535 -73.227 -1.74027 7.32275 61.1221 -39.2368 -3.18055e-015 -3.18055e-015 -55.4273 -44.4033 -51.4516 -176.785 9.18121 70.605 0.171279 9.19042 -60.589 -54.2627 0 -1.59028e-015 -46.6684 41.8261 46.5446 -2.4053 23.3757 -165.788 -23.0312 3.18055e-015 3.18055e-015 6.96347 1.2497 -2.65232 90 -7.95139e-016 -9.54166e-015 8.11166 -7.73916 -177.091 -16.9376 3.18056e-015 -0 15.4387 -3.39695 -0.322113 90 0 -0 
362.956 88.8214 148.892 -75.261 44.6732 170.726 3.68513 -3.28016 -0.657299 7.35059 -6.59519 -1.10428 7.35058 -6.59519 -1.10429 -8.31066e-012 -9.0191e-006 -5.27751e-005 35.2002 -54.6332 49.3277 179.667 1.1 -73.1529 -1.37347 7.66921 61.0273 -38.2719 0 3.97569e-015 -55.3091 -44.3281 -51.2998 -176.808 9.13725 70.6508 0.0373039 9.56411 -60.3936 -54.2828 -4.77083e-015 1.59028e-015 -46.6584 41.7201 46.4749 -2.01744 25.7537 -166.873 -18.7322 -3.18055e-015 -0 4.88099 2.18633 -4.66896 90 0 -6.36111e-015 8.36959 -8.48232 -177.812 -16.4659 -3.18056e-015 1.59028e-015 15.3123 -3.22485 -0.161822 90 1.98785e-016 -0 
363.814 88.8785 148.57 -75.7899 43.7005 171.647 3.6443 -3.27255 -0.748573 7.26344 -6.58542 -1.28995 7.26344 -6.58542 -1.28996 -8.30907e-012 -9.0191e-006 -5.27751e-005 35.827 -54.2627 49.7711 179.658 1.12491 -73.095 -1.02549 7.82687 60.9062 -37.0219 -3.18055e-015 -1.59028e-015 -55.2752 -44.2476 -51.2452 -176.825 9.06887 70.6098 0.0577269 9.91923 -60.2502 -54.2781 3.18055e-015 3.18055e-015 -46.7598 41.6406 46.5561 -0.774704 25.1964 -168.714 -16.0363 6.36111e-015 -0 2.64289 3.38962 -7.34845 90 0 -3.18055e-015 8.70605 -9.31594 -178.728 -15.7828 6.36111e-015 -3.18056e-015 14.9772 -3.00026 0.106632 90 0 -0 
364.729 88.9156 148.277 -76.0166 42.9318 172.117 3.63034 -3.17031 -0.833331 7.23095 -6.38634 -1.46687 7.23095 -6.38634 -1.46688 -8.31066e-012 -9.0191e-006 -5.27751e-005 36.4438 -53.4882 50.0805 179.665 1.10433 -73.1095 -0.786779 7.89659 60.654 -35.6799 6.36111e-015 3.18055e-015 -55.0862 -44.279 -51.0862 -176.852 8.95671 70.5419 0.386844 10.0865 -60.4087 -54.2315 3.18055e-015 -0 -46.916 41.6523 46.7336 -0.205806 24.4728 -169.663 -16.1706 9.54166e-015 1.59028e-015 3.24272 3.1817 -6.99093 90 0 -0 9.34508 -9.81766 -179.46 -14.9296 9.54167e-015 3.18056e-015 14.4818 -2.80822 0.56142 90 3.97569e-016 -3.18055e-015 
365.747 88.9571 147.983 -75.9657 42.5139 172.472 3.61409 -2.98363 -0.980637 7.19138 -6.02236 -1.77424 7.19138 -6.02236 -1.77425 -8.30589e-012 -9.0191e-006 -5.27751e-005 36.3764 -52.2698 49.3668 179.712 0.951777 -73.162 -0.512567 8.04924 60.1883 -34.681 6.36111e-015 -0 -54.7247 -44.3808 -50.7951 -176.906 8.81965 70.5784 0.821505 9.90497 -60.922 -54.2094 -1.59028e-015 -6.36111e-015 -46.7534 41.6148 46.5477 0.902232 24.4591 -170.77 -15.6152 0 -0 3.56649 3.59637 -6.91179 90 1.98785e-016 -0 10.0116 -10.3228 179.602 -14.2952 -3.18056e-015 1.59028e-015 14.2897 -2.83326 1.07559 90 -3.97569e-016 -2.22639e-014 
366.829 88.9664 147.63 -76.0074 42.2145 172.809 3.58068 -2.79745 -1.09628 7.1201 -5.65706 -2.01882 7.1201 -5.65706 -2.01883 -8.30748e-012 -9.0191e-006 -5.27751e-005 34.6341 -50.4416 46.8821 179.813 0.603201 -72.8217 -0.126362 8.23458 59.2765 -34.3157 0 7.95139e-016 -54.5931 -44.6579 -50.8201 -176.976 8.68406 70.7179 1.0326 9.59265 -61.5619 -54.302 -6.36111e-015 -3.18055e-015 -46.6424 41.6299 46.4597 1.85506 24.6698 -171.834 -15.2628 0 3.18055e-015 4.287 3.93239 -6.63621 90 3.97569e-016 3.18055e-015 10.8803 -10.7677 178.806 -13.1302 3.18056e-015 3.18056e-015 14.0549 -2.82001 0.94286 90 1.98785e-016 9.54166e-015 
367.989 88.9768 147.2 -76.0156 41.6491 173.28 3.55744 -2.66405 -1.22466 7.06881 -5.39802 -2.28495 7.06881 -5.39802 -2.28496 -8.3047e-012 -9.0191e-006 -5.27751e-005 31.6783 -47.5126 43.0359 179.908 0.287664 -72.3381 0.436231 8.41791 58.2127 -34.3396 -3.18055e-015 -8.74653e-015 -54.9297 -44.7643 -51.224 -176.989 8.63011 70.6831 0.764377 9.14568 -61.8245 -54.434 0 -6.36111e-015 -46.1221 41.7663 45.9827 2.7398 24.1895 -173.228 -15.3616 -3.18055e-015 -1.59028e-015 4.9513 3.72596 -5.82169 90 2.98177e-016 -0 11.8833 -11.4581 177.852 -11.8178 0 -0 13.7721 -2.81637 0.916059 90 -9.93923e-017 3.18055e-015 
369.161 88.9788 146.741 -76.0372 40.8587 173.843 3.54558 -2.5653 -1.33621 7.04119 -5.20729 -2.51463 7.04119 -5.20729 -2.51463 -8.30788e-012 -9.0191e-006 -5.27751e-005 27.713 -43.1455 37.9952 179.994 0.0167078 -71.8976 0.962445 8.47211 57.3781 -34.422 9.54166e-015 2.38542e-015 -55.6557 -44.9638 -52.1313 -177.025 8.52092 70.6706 0.542867 8.71937 -61.968 -54.4769 4.77083e-015 -0 -45.8804 41.8383 45.7606 3.85127 23.4088 -174.732 -15.1015 0 -0 5.54091 3.57955 -5.22095 90 9.93923e-017 -3.18055e-015 13.301 -12.3402 176.986 -9.74576 6.36111e-015 -0 13.1274 -2.68762 0.645855 90 -3.88251e-019 -9.54166e-015 
370.315 88.976 146.277 -75.7971 39.9096 174.199 3.58458 -2.45077 -1.42703 7.11703 -4.98486 -2.70144 7.11703 -4.98486 -2.70145 -8.30947e-012 -9.0191e-006 -5.27751e-005 23.5526 -37.1228 32.5517 -179.94 -0.182687 -71.6777 1.37329 8.24179 56.8927 -34.1837 9.54166e-015 -0 -55.8859 -45.0163 -52.4107 -177.113 8.30481 70.7517 0.747125 8.294 -62.2227 -54.377 -3.18055e-015 -3.18055e-015 -45.6892 41.9184 45.5838 5.26728 22.4297 -176.19 -14.5482 3.18055e-015 7.95139e-016 6.03941 3.49923 -4.63523 90 9.93923e-017 -0 14.2488 -13.4747 175.949 -9.02625 6.36111e-015 7.95139e-016 13.1654 -2.57771 1.56194 90 6.06643e-021 -9.54166e-015 
371.464 88.9973 145.816 -75.3659 38.721 174.369 3.65949 -2.31618 -1.49796 7.26635 -4.7221 -2.84827 7.26635 -4.7221 -2.84828 -8.30669e-012 -9.0191e-006 -5.27751e-005 19.7436 -29.6052 27.1189 -179.894 -0.317803 -71.5417 1.11906 8.0848 56.491 -33.6718 0 7.95139e-016 -56.1466 -45.2155 -52.8225 -177.185 8.09778 70.7609 1.22896 7.87276 -62.4439 -54.1211 -4.77083e-015 6.36111e-015 -45.6877 41.9862 45.6513 6.72738 21.1664 -177.491 -14.0669 3.18055e-015 7.95139e-016 6.46742 3.38509 -4.0325 90 9.93923e-017 -0 13.5911 -14.6396 174.56 -11.7334 0 7.95139e-016 14.1223 -2.77281 2.49699 90 -4.96962e-017 -6.36111e-015 
372.592 89.0276 145.344 -75.1417 37.2539 174.684 3.71921 -2.2012 -1.54561 7.38615 -4.49687 -2.94823 7.38615 -4.49687 -2.94824 -8.30788e-012 -9.0191e-006 -5.27751e-005 16.3562 -20.9199 21.5259 -179.862 -0.411699 -71.4104 0.633112 7.71426 56.1381 -33.0174 -3.18055e-015 -7.95139e-016 -55.9432 -45.2664 -52.6572 -177.229 7.97873 70.7741 1.68013 7.54686 -62.6271 -53.6955 -7.95139e-015 -0 -45.8187 41.8544 45.6825 7.63552 19.9151 -178.517 -14.1229 0 -7.95139e-016 7.08017 3.4586 -3.99922 90 2.73329e-016 -6.36111e-015 12.0394 -16.242 172.978 -15.7865 9.54167e-015 7.95139e-016 15.1274 -3.03792 3.4064 90 -3.97569e-016 6.36111e-015 
373.648 89.039 144.815 -75.1587 35.5391 175.233 3.73902 -2.1272 -1.57751 7.42602 -4.35157 -3.01587 7.42602 -4.35157 -3.01588 -8.30609e-012 -9.0191e-006 -5.27751e-005 13.7124 -11.4213 16.1621 -179.814 -0.552429 -71.381 0.277604 7.06447 56.0774 -32.4065 3.18055e-015 5.56597e-015 -55.318 -45.1799 -51.9604 -177.257 7.91626 70.8185 2.0873 7.17339 -62.7054 -53.4753 0 3.18055e-015 -45.3258 41.962 45.2355 8.27233 18.3514 -179.564 -14.1717 3.18055e-015 -7.95139e-016 7.60333 3.51797 -3.90128 90 -3.97569e-016 9.54166e-015 9.71281 -17.6663 171.069 -20.8362 -6.36111e-015 -3.18056e-015 15.9379 -3.2969 4.29225 90 0 -0 
374.63 89.0281 144.267 -75.032 33.6446 175.844 3.80316 -2.08285 -1.612 7.55402 -4.26685 -3.08518 7.55402 -4.26685 -3.08518 -8.30688e-012 -9.0191e-006 -5.27751e-005 11.9368 -1.86757 10.9993 -179.762 -0.708777 -71.404 -0.176584 6.45895 56.1411 -32.2716 6.36111e-015 5.56597e-015 -55.2453 -45.1717 -51.9064 -177.279 7.85572 70.824 2.53179 6.89515 -62.6775 -53.6143 3.18055e-015 3.18055e-015 -45.0673 41.8792 44.9286 8.96826 16.5741 179.345 -14.2503 3.18055e-015 -0 8.08862 3.56844 -3.87725 90 0 -3.18055e-015 6.86201 -18.9711 168.751 -26.7722 -1.27222e-014 -3.18056e-015 16.2978 -3.6019 5.10597 90 -3.97569e-016 -3.18055e-015 
375.482 88.9852 143.739 -74.755 31.6088 176.308 3.9334 -2.04915 -1.62007 7.81513 -4.20343 -3.09856 7.81512 -4.20343 -3.09857 -8.30867e-012 -9.0191e-006 -5.27751e-005 11.1155 6.83915 6.04044 -179.717 -0.844937 -71.4519 -0.704648 5.96128 56.2027 -32.7026 1.90833e-014 3.18055e-015 -55.1948 -45.3204 -51.9242 -177.279 7.83116 70.7745 2.90319 6.74328 -62.5755 -53.9936 3.18055e-015 -6.36111e-015 -44.9853 41.9685 44.9128 9.46765 14.8693 178.579 -14.63 3.18055e-015 7.95139e-016 8.81538 3.84121 -4.4602 90 0 -0 3.82807 -19.7509 166.367 -33.1447 6.36111e-015 -1.59028e-015 15.8404 -3.91322 5.83497 90 0 1.27222e-014 
376.206 88.9143 143.295 -74.4586 29.5836 176.671 4.10145 -2.00294 -1.61176 8.15277 -4.11488 -3.0788 8.15277 -4.11488 -3.07881 -8.30549e-012 -9.0191e-006 -5.27751e-005 11.1089 14.3128 1.42687 -179.686 -0.935309 -71.4448 -1.20062 5.62283 56.0959 -33.7115 -6.36111e-015 -7.95139e-016 -55.3534 -45.3978 -52.1183 -177.292 7.79324 70.7732 3.24968 6.65832 -62.5078 -54.4374 0 -9.54166e-015 -45.1212 41.8749 45.0177 10.1037 12.6204 178.031 -14.675 0 -7.95139e-016 9.5936 4.01247 -5.30961 90 -3.97569e-016 -0 0.705449 -20.1463 164.107 -39.4677 3.18056e-015 -1.59028e-015 14.3941 -3.94987 6.49094 90 1.59028e-015 -9.54166e-015 
376.801 88.9219 142.974 -74.2442 27.7119 177.294 4.26981 -1.93275 -1.66889 8.48916 -3.98321 -3.19183 8.48916 -3.98321 -3.19184 -8.31046e-012 -9.0191e-006 -5.27751e-005 11.5736 19.8193 -2.21906 -179.669 -0.985632 -71.4233 -1.81933 5.444 55.7808 -34.9573 9.54166e-015 7.95139e-016 -55.7966 -45.7814 -52.7873 -177.291 7.77898 70.7346 3.53158 6.74511 -62.4539 -54.717 1.59028e-015 3.18055e-015 -45.0762 41.8396 44.9227 10.5916 11.9837 177.335 -14.6983 0 -0 9.80786 4.50381 -5.89151 90 7.95139e-016 -3.18055e-015 -1.99613 -19.6125 162.08 -44.7542 6.36111e-015 4.77083e-015 12.0651 -3.60363 7.15449 90 -7.95139e-015 9.54166e-015 
377.319 88.9239 142.841 -74.2106 25.7823 177.877 4.39868 -1.87815 -1.71422 8.74668 -3.88104 -3.28187 8.74668 -3.88104 -3.28188 -8.30609e-012 -9.0191e-006 -5.27751e-005 11.9572 23.2186 -4.56841 -179.66 -1.00561 -71.3299 -2.22957 5.31666 55.2566 -36.0088 9.54166e-015 6.36111e-015 -55.8103 -45.5903 -52.6482 -177.302 7.72394 70.6812 3.67979 6.85427 -62.3924 -54.7624 -3.18055e-015 6.36111e-015 -45.2929 41.779 45.1349 10.9935 10.3394 176.92 -14.4757 -4.77083e-015 -3.97569e-016 9.99096 4.71459 -6.43346 90 7.95139e-016 3.18055e-015 -3.78959 -18.8816 160.809 -47.9083 -6.36111e-015 -0 9.87529 -2.94376 7.81072 90 0 3.18055e-015 
377.759 88.9265 142.907 -74.4753 23.7328 178.287 4.46016 -1.84833 -1.69827 8.87095 -3.82195 -3.25009 8.87095 -3.82195 -3.2501 -8.31016e-012 -9.0191e-006 -5.27751e-005 12.0877 25.0488 -5.96684 -179.664 -0.988646 -71.2397 -2.45535 5.21618 54.7328 -36.7924 3.18055e-015 2.38542e-015 -56.1984 -45.625 -53.0715 -177.322 7.67691 70.7059 3.63665 6.88556 -62.3094 -54.6946 0 -9.54166e-015 -45.4128 41.7455 45.2689 11.163 8.02431 177.018 -13.993 0 -0 10.2719 4.77115 -7.28673 90 0 -9.54166e-015 -4.25436 -17.9927 160.927 -48.171 0 3.18056e-015 9.20778 -2.47401 8.06536 90 -1.59028e-015 9.54166e-015 
378.159 89.0086 143.126 -74.8736 21.7551 179.057 4.45251 -1.85394 -1.74083 8.85404 -3.83621 -3.33499 8.85404 -3.83621 -3.335 -8.30977e-012 -9.0191e-006 -5.27751e-005 12.3162 25.9751 -6.84437 -179.632 -1.0757 -71.1345 -2.52711 5.1598 54.2715 -37.1275 -3.18055e-015 -3.18055e-015 -56.5212 -45.4436 -53.3142 -177.33 7.67652 70.7565 3.36125 6.84561 -62.041 -54.6868 4.77083e-015 -3.18055e-015 -45.1169 41.7092 44.8633 11.2982 6.91518 176.793 -13.3821 1.59028e-015 3.97569e-016 9.89944 5.09375 -7.39381 90 0 3.18055e-015 -3.42725 -16.5834 161.852 -45.5593 0 1.59028e-015 10.3958 -2.59088 7.71446 90 1.59028e-015 3.18055e-015 
